Coordinates
version=1
nRows=35
nColumns=33
inDegrees=yes

Units are S.I. units (second, meters, Newtons, ...)
Angles are in degrees.

endheader
time	ground_thorax_rot_x	ground_thorax_rot_y	ground_thorax_rot_z	ground_thorax_tx	ground_thorax_ty	ground_thorax_tz	clav_prot_r	clav_elev_r	scapula_abduction_r	scapula_elevation_r	scapula_upward_rot_r	scapula_winging_r	shoulder_elv_r	plane_of_elev_r	axial_rot_r	elbow_flexion_r	pro_sup_r	wrist_flex_r	wrist_dev_r	clav_prot_l	clav_elev_l	scapula_abduction_l	scapula_elevation_l	scapula_upward_rot_l	scapula_winging_l	shoulder_elv_l	plane_of_elev_l	axial_rot_l	elbow_flexion_l	pro_sup_l	wrist_flex_l	wrist_dev_l	
2.4200	-0.608329	2.702630	10.662073	-0.105369	1.029257	0.012478	8.577418	-10.438021	15.086815	-3.307558	0.026993	-2.628648	-60.281267	-73.215297	81.913272	-60.053476	-136.773743	48.929804	-25.000000	9.697808	-0.328715	-12.191132	-22.656063	-37.497126	-1.938341	53.713758	-36.925856	0.675956	58.412232	26.998447	-4.523667	-25.000000	
2.4300	-0.617000	2.701967	10.723545	-0.105400	1.028969	0.012464	8.547123	-10.466188	15.045607	-3.342015	0.047073	-2.602762	-60.214151	-73.165608	81.974557	-60.096564	-136.808059	49.031436	-25.000000	9.684174	-0.402120	-12.169459	-22.574134	-37.475830	-1.933268	53.743855	-36.843118	0.664833	58.414902	26.994965	-4.571428	-25.000000	
2.4400	-0.621987	2.708557	10.771128	-0.105411	1.028727	0.012465	8.507176	-10.499795	14.986344	-3.380643	0.064855	-2.567632	-60.111022	-73.116510	82.058564	-60.147420	-136.858903	49.179637	-25.000000	9.669132	-0.490043	-12.147617	-22.480011	-37.459238	-1.927766	53.792838	-36.753515	0.649992	58.412220	26.992896	-4.645277	-24.999999	
2.4500	-0.626129	2.717120	10.806180	-0.105394	1.028541	0.012483	8.452477	-10.539831	14.898721	-3.421856	0.073878	-2.518161	-59.946904	-73.087144	82.178812	-60.203178	-136.936177	49.401953	-25.000000	9.655330	-0.593671	-12.131959	-22.374950	-37.452645	-1.918594	53.879495	-36.653218	0.628453	58.412342	26.995525	-4.766999	-24.999999	
2.4600	-0.630451	2.724042	10.835509	-0.105345	1.028406	0.012505	8.383177	-10.587362	14.778850	-3.463367	0.066483	-2.452379	-59.722369	-73.090947	82.346872	-60.256430	-137.041058	49.702421	-25.000000	9.643890	-0.708231	-12.126523	-22.269326	-37.467952	-1.907387	54.003278	-36.548965	0.594561	58.426424	27.004505	-4.944542	-24.999998	
2.4700	-0.634247	2.739666	10.843949	-0.105243	1.028356	0.012535	8.268547	-10.660131	14.560940	-3.509583	0.012992	-2.336838	-59.328317	-73.163878	82.655845	-60.302231	-137.225108	50.233162	-25.000000	9.631558	-0.864639	-12.138191	-22.153864	-37.549899	-1.895570	54.223805	-36.438095	0.528441	58.463780	27.031585	-5.278819	-24.999997	
2.4800	-0.639289	2.756072	10.840438	-0.105096	1.028360	0.012564	8.122582	-10.748329	14.270928	-3.553520	-0.081155	-2.185764	-58.812775	-73.303605	83.076728	-60.343148	-137.468685	50.927189	-24.999999	9.622773	-1.043285	-12.170709	-22.042973	-37.688158	-1.882344	54.516569	-36.327220	0.433476	58.531590	27.070795	-5.732692	-24.999995	
2.4900	-0.644707	2.774606	10.824234	-0.104915	1.028408	0.012588	7.953581	-10.845295	13.926601	-3.592430	-0.207496	-2.009187	-58.204992	-73.498615	83.588886	-60.391488	-137.760899	51.739225	-24.999999	9.619645	-1.235973	-12.224493	-21.939136	-37.871202	-1.866704	54.864944	-36.216590	0.313924	58.629132	27.114973	-6.278839	-24.999992	
2.5000	-0.649998	2.783341	10.802383	-0.104737	1.028423	0.012605	7.804497	-10.920367	13.617845	-3.613076	-0.328639	-1.855554	-57.649965	-73.712528	84.085143	-60.488692	-138.041815	52.456024	-24.999999	9.634590	-1.396457	-12.304827	-21.860072	-38.041233	-1.841622	55.192677	-36.104875	0.186400	58.759983	27.138970	-6.786678	-24.999985	
2.5100	-0.652526	2.789339	10.770732	-0.104569	1.028415	0.012623	7.674146	-10.969764	13.344770	-3.614054	-0.439713	-1.726575	-57.146161	-73.931531	84.563344	-60.649867	-138.315813	53.062871	-24.999998	9.667709	-1.529187	-12.411276	-21.798785	-38.193103	-1.805732	55.498404	-35.986893	0.056825	58.924901	27.132720	-7.251221	-24.999974	
2.5200	-0.646625	2.789049	10.752617	-0.104443	1.028299	0.012641	7.588310	-10.956425	13.156821	-3.566822	-0.526246	-1.657070	-56.785387	-74.138180	84.969107	-60.923340	-138.560535	53.374913	-24.999996	9.733039	-1.600922	-12.561258	-21.776629	-38.304237	-1.751685	55.725973	-35.862339	-0.065603	59.153950	27.055111	-7.590681	-24.999953	
2.5300	-0.635854	2.789455	10.746903	-0.104352	1.028109	0.012659	7.534643	-10.891382	13.031383	-3.480009	-0.592319	-1.633597	-56.528280	-74.327191	85.326960	-61.296866	-138.792532	53.430496	-24.999993	9.826044	-1.625700	-12.750797	-21.786118	-38.387681	-1.681730	55.896443	-35.729520	-0.168657	59.460801	26.900999	-7.836368	-24.999916	
2.5400	-0.619742	2.804122	10.753592	-0.104304	1.027842	0.012688	7.494718	-10.775311	12.926217	-3.344814	-0.660891	-1.638889	-56.295437	-74.512345	85.715802	-61.786965	-139.071272	53.214073	-24.999988	9.959491	-1.626534	-13.015372	-21.824949	-38.488406	-1.585622	56.041598	-35.576678	-0.250656	59.869502	26.615509	-8.044010	-24.999850	
2.5500	-0.608210	2.837555	10.754548	-0.104252	1.027604	0.012728	7.438596	-10.652944	12.787512	-3.199191	-0.741059	-1.633383	-55.990774	-74.700650	86.181971	-62.329222	-139.411233	52.940240	-24.999979	10.110558	-1.636402	-13.319897	-21.868845	-38.621128	-1.476820	56.223150	-35.404612	-0.303485	60.371891	26.245984	-8.298679	-24.999731	
2.5600	-0.601682	2.886920	10.754544	-0.104193	1.027384	0.012779	7.370079	-10.524714	12.624916	-3.046318	-0.826033	-1.620905	-55.634074	-74.889450	86.701578	-62.917562	-139.794599	52.631790	-24.999962	10.272405	-1.647510	-13.647290	-21.917719	-38.768526	-1.360548	56.435489	-35.216267	-0.324746	60.973233	25.809670	-8.584924	-24.999518	
2.5700	-0.609188	2.935312	10.742136	-0.104100	1.027231	0.012834	7.308208	-10.414564	12.490869	-2.925154	-0.875112	-1.613014	-55.309214	-75.047633	87.164942	-63.500297	-140.137583	52.379564	-24.999932	10.416684	-1.640909	-13.927723	-21.957562	-38.857529	-1.256107	56.658574	-35.022634	-0.297621	61.644011	25.393137	-8.838262	-24.999137	
2.5800	-0.624759	2.982816	10.723070	-0.103980	1.027124	0.012900	7.255827	-10.316060	12.388936	-2.828743	-0.890614	-1.613700	-55.022022	-75.183020	87.570054	-64.089530	-140.447158	52.184334	-24.999878	10.543789	-1.618677	-14.161418	-21.984890	-38.885206	-1.162584	56.890966	-34.822325	-0.232385	62.377922	24.996884	-9.047281	-24.998454	
2.5900	-0.646939	3.018710	10.698676	-0.103822	1.027076	0.012972	7.224641	-10.234029	12.347748	-2.769004	-0.854538	-1.632526	-54.823139	-75.286138	87.857463	-64.665767	-140.687402	52.090967	-24.999781	10.637366	-1.573318	-14.309458	-21.990430	-38.813985	-1.091094	57.117916	-34.621850	-0.127301	63.151147	24.667919	-9.163796	-24.997231	
2.6000	-0.664885	3.049605	10.683390	-0.103639	1.027048	0.013063	7.208550	-10.149676	12.346546	-2.719967	-0.787597	-1.668566	-54.678991	-75.375076	88.073581	-65.261650	-140.910101	52.053719	-24.999608	10.707106	-1.519004	-14.397802	-21.974265	-38.674824	-1.034310	57.346950	-34.415378	0.005857	63.963160	24.363066	-9.188024	-24.995041	
2.6100	-0.675732	3.075203	10.673559	-0.103439	1.027051	0.013175	7.206438	-10.065599	12.381452	-2.682136	-0.694288	-1.719029	-54.562591	-75.454199	88.249292	-65.884854	-141.159041	52.036111	-24.999298	10.756507	-1.474689	-14.438267	-21.925471	-38.484457	-0.987948	57.587384	-34.194668	0.172907	64.794311	24.039436	-9.089872	-24.991113	
2.6200	-0.675168	3.103819	10.675376	-0.103239	1.027090	0.013318	7.206480	-9.977458	12.419709	-2.640293	-0.601509	-1.772108	-54.387888	-75.537964	88.477604	-66.552546	-141.516540	51.953224	-24.998743	10.801283	-1.467270	-14.474331	-21.842160	-38.297050	-0.939492	57.861840	-33.940552	0.373616	65.626905	23.601178	-8.851180	-24.984091	
2.6300	-0.655461	3.123968	10.692772	-0.103047	1.027176	0.013483	7.210939	-9.883662	12.460983	-2.589342	-0.517829	-1.827798	-54.123098	-75.648118	88.812854	-67.276197	-142.080317	51.741549	-24.997748	10.838843	-1.523999	-14.509772	-21.711148	-38.140771	-0.889504	58.178594	-33.657698	0.626948	66.445697	22.947805	-8.357700	-24.971477	
2.6400	-0.622918	3.134843	10.719524	-0.102869	1.027294	0.013660	7.222083	-9.790629	12.504385	-2.530398	-0.454524	-1.882783	-53.696763	-75.782487	89.316711	-68.052110	-142.844747	51.388806	-24.995966	10.864708	-1.623159	-14.535645	-21.554979	-38.017800	-0.844844	58.553207	-33.310737	0.916170	67.223253	22.035630	-7.473653	-24.948979	
2.6500	-0.583684	3.136287	10.753639	-0.102702	1.027436	0.013842	7.242292	-9.700402	12.559038	-2.469876	-0.400864	-1.940288	-53.128270	-75.930784	89.965505	-68.869974	-143.759299	50.906765	-24.992776	10.883501	-1.758019	-14.555920	-21.372165	-37.911500	-0.801850	58.976676	-32.902215	1.228844	67.940947	20.927365	-6.239113	-24.908405	
2.6600	-0.545018	3.132160	10.782456	-0.102548	1.027592	0.014025	7.276300	-9.612287	12.643705	-2.416600	-0.334246	-2.008807	-52.423088	-76.068457	90.738335	-69.711878	-144.711881	50.307954	-24.987057	10.899730	-1.906171	-14.568145	-21.165612	-37.781828	-0.757356	59.432424	-32.422172	1.543820	68.578091	19.743603	-4.671147	-24.836489	
2.6700	-0.511603	3.121538	10.808543	-0.102399	1.027754	0.014206	7.326321	-9.525616	12.772948	-2.379621	-0.231726	-2.095416	-51.671199	-76.183132	91.546604	-70.568354	-145.635487	49.610871	-24.976825	10.922514	-2.072281	-14.583772	-20.918804	-37.604564	-0.701649	59.892166	-31.897512	1.857038	69.125045	18.610233	-2.935782	-24.705538	
2.6800	-0.493599	3.110125	10.822957	-0.102253	1.027903	0.014378	7.395475	-9.449355	12.956629	-2.370398	-0.085379	-2.200897	-50.885993	-76.254126	92.352786	-71.425961	-146.424369	48.848744	-24.958459	10.954821	-2.227586	-14.600316	-20.646606	-37.351913	-0.634395	60.346256	-31.308837	2.142724	69.563473	17.632739	-1.095403	-24.476910	
2.6900	-0.494736	3.092794	10.829968	-0.102111	1.028032	0.014527	7.488347	-9.383807	13.208415	-2.394088	0.116566	-2.331014	-50.123983	-76.280626	93.115117	-72.281036	-147.078836	47.959912	-24.925666	10.998656	-2.371861	-14.620773	-20.346802	-37.019268	-0.553513	60.776566	-30.662565	2.413450	69.887351	16.851497	0.820377	-24.050780	
2.7000	-0.507498	3.065403	10.833386	-0.101978	1.028128	0.014652	7.611663	-9.326783	13.525199	-2.435570	0.343275	-2.483771	-49.297660	-76.268919	93.908829	-73.150600	-147.628685	46.875261	-24.866629	11.049644	-2.525994	-14.645625	-20.014069	-36.637639	-0.462870	61.205516	-29.963769	2.679451	70.109975	16.222589	2.934978	-23.333770	
2.7100	-0.531770	3.027270	10.841587	-0.101855	1.028195	0.014744	7.758471	-9.282666	13.889305	-2.493365	0.581696	-2.650261	-48.400309	-76.233413	94.750404	-74.030761	-148.157026	45.589495	-24.761702	11.110057	-2.705191	-14.687447	-19.647950	-36.237971	-0.360975	61.637053	-29.211901	2.947385	70.209350	15.665583	5.194193	-22.318549	
2.7200	-0.574932	2.984391	10.853561	-0.101748	1.028207	0.014798	7.920959	-9.251817	14.281301	-2.562192	0.818652	-2.822360	-47.353917	-76.176151	95.718827	-74.914462	-148.690549	44.109205	-24.571443	11.185214	-2.895064	-14.758948	-19.270795	-35.838309	-0.247187	62.084543	-28.386068	3.199118	70.174786	15.120893	7.590840	-21.003985	
2.7300	-0.640123	2.939470	10.869384	-0.101670	1.028181	0.014805	8.097659	-9.243148	14.699605	-2.650851	1.055675	-2.996391	-46.170484	-76.097221	96.793609	-75.783469	-149.244984	42.458994	-24.237066	11.288432	-3.098740	-14.883039	-18.878046	-35.436349	-0.111277	62.525038	-27.490131	3.434518	69.971622	14.577909	10.000988	-19.462893	
2.7400	-0.726320	2.897840	10.888592	-0.101615	1.028100	0.014773	8.278569	-9.245075	15.129298	-2.751272	1.298917	-3.171270	-44.835550	-75.993643	97.995507	-76.634337	-149.838535	40.672147	-23.712612	11.431407	-3.325068	-15.082115	-18.462702	-35.036608	0.057077	62.947460	-26.542129	3.652610	69.593124	14.038214	12.321761	-17.794685	
2.7500	-0.834726	2.867202	10.911231	-0.101583	1.028008	0.014703	8.458341	-9.278542	15.564231	-2.884377	1.552729	-3.336797	-43.431246	-75.859679	99.215760	-77.432061	-150.452603	38.891190	-22.991025	11.625091	-3.579653	-15.373019	-18.013547	-34.627194	0.267084	63.325247	-25.550955	3.841973	68.981141	13.526305	14.338781	-16.199281	
2.7600	-0.968584	2.843423	10.941821	-0.101579	1.027876	0.014587	8.635898	-9.329748	16.006471	-3.041393	1.826544	-3.499617	-41.950717	-75.695840	100.486776	-78.177917	-151.125184	37.043902	-22.005839	11.879766	-3.846523	-15.773385	-17.548915	-34.214727	0.525119	63.638915	-24.518650	4.025799	68.141323	13.009445	16.101836	-14.700393	
